<?xml version="1.0" encoding="UTF-8"?>
<svg width="375px" height="80px" viewBox="0 0 375 80" version="1.1" xmlns="http://www.w3.org/2000/svg" xmlns:xlink="http://www.w3.org/1999/xlink">
    <title>Group 18</title>
    <g id="ui-design" stroke="none" stroke-width="1" fill="none" fill-rule="evenodd">
        <g id="wireframe-home-copy-2" transform="translate(0.000000, -732.000000)">
            <g id="Group-18" transform="translate(0.000000, 732.000000)">
                <rect id="Rectangle" stroke="#C0BDC9" fill="#FFFFFF" x="0.5" y="0.5" width="374" height="79"></rect>
                <rect id="Rectangle" fill="#D62251" x="12" y="0" width="29" height="4" rx="2"></rect>
                <text id="Home" font-family="AirbnbCerealApp-Bold, Airbnb Cereal App" font-size="10" font-weight="bold" letter-spacing="0.15625" fill="#D62251">
                    <tspan x="12" y="54">Home</tspan>
                </text>
                <g id="icon/solid/home" transform="translate(15.000000, 16.000000)">
                    <g id="Group" transform="translate(3.000000, 3.000000)" fill="#74689E" fill-rule="nonzero">
                        <path d="M9,11.2457398 C7.755,11.2457398 6.75,12.2536255 6.75,13.4971599 L6.75,18 L11.25,18 L11.25,13.4971599 C11.25,12.2536255 10.245,11.2457398 9,11.2457398 Z" id="Path"></path>
                        <path d="M12.75,13.4971599 L12.75,18 L15.75,18 C16.995,18 18,16.9921143 18,15.7485799 L18,8.90351246 C18,8.51401678 17.85,8.13953058 17.58,7.85885355 L11.205,0.964254827 C10.08,-0.253012956 8.1825,-0.328060292 6.9675,0.797649742 C6.9075,0.85093335 6.855,0.906468378 6.795,0.964254827 L0.435,7.85660212 C0.1575,8.13802963 0,8.51851962 0,8.91476956 L0,15.7485799 C0,16.9921143 1.005,18 2.25,18 L5.25,18 L5.25,13.4971599 C5.265,11.450619 6.915,9.78006534 8.91,9.73203504 C10.9725,9.68175333 12.735,11.3815755 12.75,13.4971599 Z" id="Path"></path>
                        <path d="M9,11.2457398 C7.755,11.2457398 6.75,12.2536255 6.75,13.4971599 L6.75,18 L11.25,18 L11.25,13.4971599 C11.25,12.2536255 10.245,11.2457398 9,11.2457398 Z" id="Path"></path>
                    </g>
                    <rect id="Rectangle" x="0" y="0" width="24" height="24"></rect>
                </g>
                <g id="icon/outline/book" transform="translate(175.000000, 16.000000)">
                    <rect id="Rectangle" x="0" y="0" width="24" height="24"></rect>
                    <path d="M19.65,3.95135891 C19.2285,3.56680463 18.73425,3.28779823 18.2025,3.13561292 C17.6715,2.98260941 17.11575,2.9588816 16.575,3.06688407 L13.7085,3.63471528 C13.047,3.76726378 12.44475,4.13872684 12,4.68937584 C11.55375,4.13790864 10.95075,3.76644558 10.287,3.63471528 L7.425,3.06688407 C6.88425,2.9588816 6.3285,2.98179121 5.79675,3.13479472 C5.26575,3.28698003 4.77075,3.56435003 4.34925,3.94890431 C3.927,4.33264038 3.58725,4.81292413 3.354,5.35620932 C3.12075,5.89867631 3,6.49105353 3,7.09079456 L3,15.9216335 C3,16.8797464 3.30825,17.8067677 3.87075,18.54233 C4.43325,19.2778923 5.21475,19.7745401 6.07875,19.9463622 L10.79325,20.8815655 C11.59125,21.0394782 12.40875,21.0394782 13.20675,20.8815655 L17.925,19.9463622 C18.78825,19.7737219 19.569,19.2770741 20.13075,18.5415118 C20.6925,17.8059495 21,16.8789282 21,15.9216335 L21,7.09079456 C21,6.49105353 20.87925,5.89949451 20.646,5.35702752 C20.41275,4.81374233 20.073,4.33427678 19.65,3.95135891 Z M11.25,19.3048929 C11.187,19.2950745 11.124,19.2836197 11.061,19.2713467 L6.34725,18.3369616 C5.829,18.2338684 5.36025,17.9360433 5.022,17.494215 C4.6845,17.0532049 4.5,16.4968285 4.5,15.9216335 L4.5,7.09079456 C4.5,6.4395069 4.737,5.81521985 5.15925,5.35539112 C5.58075,4.89474419 6.153,4.6361928 6.75,4.6361928 C6.88575,4.6361928 7.0215,4.65010221 7.155,4.67628463 L10.02,5.24902504 C10.365,5.31775389 10.67625,5.51657663 10.90125,5.80949244 C11.1255,6.10322645 11.24925,6.47305312 11.25,6.85515279 L11.25,19.3048929 Z M19.5000058,15.9216335 C19.5000058,16.4968285 19.3155,17.0532049 18.978,17.494215 C18.63975,17.9360433 18.171,18.2338684 17.65275,18.3369616 L12.939,19.2713467 C12.876,19.2836197 12.813,19.2950745 12.75,19.3048929 L12.75,6.85515279 C12.75,6.47223492 12.873,6.10077185 13.098,5.80621964 C13.323,5.51248563 13.63575,5.31366289 13.9815,5.24493404 L16.84725,4.67219363 C17.172,4.60755578 17.505,4.62228339 17.8245,4.71392186 C18.14325,4.80556032 18.4395,4.97329144 18.693,5.20402401 C18.94575,5.43475657 19.14975,5.72276318 19.28925,6.04922521 C19.42875,6.37568725 19.50075,6.7307863 19.5000058,7.09079456 L19.5000058,15.9216335 Z" id="Shape" fill="#393939" fill-rule="nonzero"></path>
                </g>
                <g id="icon/outline/account" transform="translate(335.000000, 16.000000)">
                    <rect id="Rectangle" x="0" y="0" width="24" height="24"></rect>
                    <g id="Group" transform="translate(5.000000, 3.000000)" fill="#393939" fill-rule="nonzero">
                        <path d="M6.74978872,9.0002817 C7.64001086,9.0002817 8.50998363,8.73778992 9.24946048,8.24280541 C9.98968731,7.7478209 10.5664193,7.04284297 10.9069086,6.22536856 C11.2473979,5.40039438 11.3366452,4.49292278 11.1634006,3.62295002 C10.989406,2.75297725 10.5611694,1.95050237 9.93193912,1.32052208 C9.30270882,0.690541803 8.50023393,0.263055184 7.62801124,0.090560583 C6.75503856,-0.089433783 5.84981689,0.000563400022 5.02784262,0.345552602 C4.20586835,0.683042038 3.50239037,1.26052396 3.00815584,2.00300072 C2.51392131,2.73797772 2.24992957,3.60795049 2.24992957,4.50042255 C2.25142953,5.69288522 2.72541469,6.84034931 3.56913828,7.68032302 C4.41286187,8.52779649 5.55657607,9.0002817 6.74978872,9.0002817 Z M6.74978872,1.50051645 C7.34302016,1.50051645 7.92275201,1.67301105 8.41623656,2.00300072 C8.90972112,2.33299039 9.29445907,2.8054756 9.52170196,3.35295847 C9.74819487,3.90044133 9.80744302,4.50042255 9.69194663,5.08540424 C9.57645025,5.67038593 9.29070919,6.20286926 8.87072234,6.62285612 C8.45148546,7.04284297 7.9167522,7.32783405 7.33477041,7.44033053 C6.75278863,7.56032677 6.1498075,7.50032865 5.60157467,7.27533569 C5.05334183,7.04284297 4.58535647,6.66035494 4.2553668,6.16537044 C3.92612711,5.67038593 3.74988262,5.092904 3.74988262,4.50042255 C3.74988262,3.70544743 4.06562274,2.94047138 4.62885511,2.37798898 C5.19133751,1.81550659 5.95406363,1.50051645 6.74978872,1.50051645 Z" id="Shape"></path>
                        <path d="M6.74978872,10.5002348 C4.96034474,10.5002348 3.24439845,11.2127124 1.97918805,12.4801728 C0.713977652,13.7476331 0.00224992957,15.4575796 0,17.2500235 C0,17.4525171 0.0787475351,17.6400113 0.219743122,17.7825068 C0.359988732,17.9250023 0.551232746,18 0.749976525,18 C0.948720304,18 1.13996432,17.9250023 1.28020993,17.7825068 C1.42120551,17.6400113 1.49995305,17.4525171 1.49995305,17.2500235 C1.49995305,15.8550671 2.05268575,14.5201089 3.03740493,13.5376397 C4.0221241,12.5551704 5.35708232,12.0001878 6.74978872,12.0001878 C8.14249513,12.0001878 9.47745335,12.5551704 10.4621725,13.5376397 C11.4468917,14.5201089 11.9996244,15.8550671 11.9996244,17.2500235 C11.9996244,17.4525171 12.0783719,17.6400113 12.2193675,17.7825068 C12.3596131,17.9250023 12.5508571,18 12.7496009,18 C12.9483447,18 13.1395887,17.9250023 13.2798343,17.7825068 C13.4208299,17.6400113 13.4995774,17.4525171 13.4995774,17.2500235 C13.4973275,15.4575796 12.7855998,13.7476331 11.5203894,12.4801728 C10.255179,11.2127124 8.53923271,10.5002348 6.74978872,10.5002348 Z" id="Path"></path>
                    </g>
                </g>
                <g id="icon/outline/category" transform="translate(95.000000, 16.000000)">
                    <rect id="Rectangle" x="0" y="0" width="24" height="24"></rect>
                    <g id="Group" transform="translate(3.000000, 3.000000)" fill="#393939" fill-rule="nonzero">
                        <path d="M5.25,0 L3,0 C2.20425,0 1.4415,0.31575 0.879,0.879 C0.31575,1.4415 0,2.20425 0,3 L0,5.25 C0,6.04575 0.31575,6.8085 0.879,7.371 C1.4415,7.93425 2.20425,8.25 3,8.25 L5.25,8.25 C6.04575,8.25 6.8085,7.93425 7.371,7.371 C7.93425,6.8085 8.25,6.04575 8.25,5.25 L8.25,3 C8.25,2.20425 7.93425,1.4415 7.371,0.879 C6.8085,0.31575 6.04575,0 5.25,0 L5.25,0 Z M6.75,5.25 C6.75,5.6475 6.59175,6.02925 6.3105,6.3105 C6.02925,6.59175 5.6475,6.75 5.25,6.75 L3,6.75 C2.6025,6.75 2.22075,6.59175 1.9395,6.3105 C1.65825,6.02925 1.5,5.6475 1.5,5.25 L1.5,3 C1.5,2.6025 1.65825,2.22075 1.9395,1.9395 C2.22075,1.65825 2.6025,1.5 3,1.5 L5.25,1.5 C5.6475,1.5 6.02925,1.65825 6.3105,1.9395 C6.59175,2.22075 6.75,2.6025 6.75,3 L6.75,5.25 Z" id="Shape"></path>
                        <path d="M15,0 L12.75,0 C11.95425,0 11.1915,0.31575 10.62825,0.879 C10.06575,1.4415 9.75,2.20425 9.75,3 L9.75,5.25 C9.75,6.04575 10.06575,6.8085 10.62825,7.371 C11.1915,7.93425 11.95425,8.25 12.75,8.25 L15,8.25 C15.79575,8.25 16.5585,7.93425 17.121,7.371 C17.6835,6.8085 18,6.04575 18,5.25 L18,3 C18,2.20425 17.6835,1.4415 17.121,0.879 C16.5585,0.31575 15.79575,0 15,0 L15,0 Z M16.5,5.25 C16.5,5.6475 16.34175,6.02925 16.0605,6.3105 C15.77925,6.59175 15.3975,6.75 15,6.75 L12.75,6.75 C12.35175,6.75 11.97075,6.59175 11.6895,6.3105 C11.40825,6.02925 11.25,5.6475 11.25,5.25 L11.25,3 C11.25,2.6025 11.40825,2.22075 11.6895,1.9395 C11.97075,1.65825 12.35175,1.5 12.75,1.5 L15,1.5 C15.3975,1.5 15.77925,1.65825 16.0605,1.9395 C16.34175,2.22075 16.5,2.6025 16.5,3 L16.5,5.25 Z" id="Shape"></path>
                        <path d="M5.25,9.75 L3,9.75 C2.20425,9.75 1.4415,10.06575 0.879,10.629 C0.31575,11.1915 0,11.95425 0,12.75 L0,15 C0,15.79575 0.31575,16.5585 0.879,17.121 C1.4415,17.68425 2.20425,18 3,18 L5.25,18 C6.04575,18 6.8085,17.68425 7.371,17.121 C7.93425,16.5585 8.25,15.79575 8.25,15 L8.25,12.75 C8.25,11.95425 7.93425,11.1915 7.371,10.629 C6.8085,10.06575 6.04575,9.75 5.25,9.75 Z M6.75,15 C6.75,15.3975 6.59175,15.77925 6.3105,16.0605 C6.02925,16.34175 5.6475,16.5 5.25,16.5 L3,16.5 C2.6025,16.5 2.22075,16.34175 1.9395,16.0605 C1.65825,15.77925 1.5,15.3975 1.5,15 L1.5,12.75 C1.5,12.3525 1.65825,11.97075 1.9395,11.6895 C2.22075,11.40825 2.6025,11.25 3,11.25 L5.25,11.25 C5.6475,11.25 6.02925,11.40825 6.3105,11.6895 C6.59175,11.97075 6.75,12.3525 6.75,12.75 L6.75,15 Z" id="Shape"></path>
                        <path d="M15,9.75 L12.75,9.75 C11.95425,9.75 11.1915,10.06575 10.62825,10.629 C10.06575,11.1915 9.75,11.95425 9.75,12.75 L9.75,15 C9.75,15.79575 10.06575,16.5585 10.62825,17.121 C11.1915,17.68425 11.95425,18 12.75,18 L15,18 C15.79575,18 16.5585,17.68425 17.121,17.121 C17.6835,16.5585 18,15.79575 18,15 L18,12.75 C18,11.95425 17.6835,11.1915 17.121,10.629 C16.5585,10.06575 15.79575,9.75 15,9.75 Z M16.5,15 C16.5,15.3975 16.34175,15.77925 16.0605,16.0605 C15.77925,16.34175 15.3975,16.5 15,16.5 L12.75,16.5 C12.35175,16.5 11.97075,16.34175 11.6895,16.0605 C11.40825,15.77925 11.25,15.3975 11.25,15 L11.25,12.75 C11.25,12.3525 11.40825,11.97075 11.6895,11.6895 C11.97075,11.40825 12.35175,11.25 12.75,11.25 L15,11.25 C15.3975,11.25 15.77925,11.40825 16.0605,11.6895 C16.34175,11.97075 16.5,12.3525 16.5,12.75 L16.5,15 Z" id="Shape"></path>
                    </g>
                </g>
                <g id="icon/outline/news" transform="translate(255.000000, 16.000000)">
                    <rect id="Rectangle" x="0" y="0" width="24" height="24"></rect>
                    <path d="M16.25,13.5000102 C16.25,13.6987599 16.1675,13.8900097 16.0325,14.0302595 C15.89,14.1712593 15.7025,14.2500112 15.5,14.2500112 L9.5,14.2500112 C9.2975,14.2500112 9.11,14.1712593 8.9675,14.0302595 C8.8325,13.8900097 8.75,13.6987599 8.75,13.5000102 C8.75,13.3012605 8.8325,13.1100108 8.9675,12.9697609 C9.11,12.8287611 9.2975,12.7500112 9.5,12.7500112 L15.5,12.7500112 C15.7025,12.7500112 15.89,12.8287611 16.0325,12.9697609 C16.1675,13.1100108 16.25,13.3012605 16.25,13.5000102 Z M13.25,15.7500072 L9.5,15.7500072 C9.2975,15.7500072 9.11,15.828757 8.9675,15.9697569 C8.8325,16.1100067 8.75,16.3012564 8.75,16.5000061 C8.75,16.6987559 8.8325,16.8900056 8.9675,17.0302554 C9.11,17.1712552 9.2975,17.2500072 9.5,17.2500072 L13.25,17.2500072 C13.4525,17.2500072 13.64,17.1712552 13.7825,17.0302554 C13.9175,16.8900056 14,16.6987559 14,16.5000061 C14,16.3012564 13.9175,16.1100067 13.7825,15.9697569 C13.64,15.828757 13.4525,15.7500072 13.25,15.7500072 Z M20,10.8637638 L20,17.2500051 C20,18.2445038 19.6025,19.1970025 18.8975,19.9005015 C18.2,20.6032505 17.2475,20.9985 16.25,21 L8.75,21 C7.7525,20.9985 6.8,20.6032505 6.1025,19.9005015 C5.3975,19.1970025 5,18.2445038 5,17.2500051 L5,6.75001942 C5,5.75552077 5.3975,4.80302207 6.1025,4.09952303 C6.8,3.39677399 7.7525,3.00152452 8.75,3.00001216 L12.14,3.00001216 C12.8225,2.99852453 13.5125,3.13352434 14.15,3.39677399 C14.7875,3.66077363 15.365,4.0485231 15.8525,4.53752243 L18.4625,7.15201887 C18.95,7.63801821 19.34,8.21626742 19.6025,8.85376655 C19.865,9.49126568 20,10.1737648 20,10.8637638 Z M14.7875,5.59802099 C14.555,5.3692713 14.285,5.17277157 14,5.01302178 L14,8.25001737 C14,8.4487671 14.0825,8.64001684 14.2175,8.78026665 C14.36,8.92126646 14.5475,9.00001635 14.75,9.00001635 L17.99,9.00001635 C17.825,8.71276674 17.63,8.4480171 17.405,8.21251742 L14.7875,5.59802099 Z M18.5,10.8637638 C18.5,10.740014 18.4775,10.6215141 18.4625,10.5000225 L14.75,10.5000225 C14.15,10.5000225 13.58,10.2630146 13.16,9.84076521 C12.74,9.41926578 12.5,8.84701656 12.5,8.25001737 L12.5,4.53527243 C12.38,4.52402245 12.26,4.50002248 12.14,4.50002248 L8.75,4.50002248 C8.15,4.50002248 7.58,4.73702216 7.16,5.15927158 C6.74,5.58077101 6.5,6.15302023 6.5,6.75001942 L6.5,17.2500051 C6.5,17.8470043 6.74,18.4192535 7.16,18.8407529 C7.58,19.2630024 8.15,19.500002 8.75,19.500002 L16.25,19.500002 C16.85,19.500002 17.42,19.2630024 17.84,18.8407529 C18.26,18.4192535 18.5,17.8470043 18.5,17.2500051 L18.5,10.8637638 Z" id="Shape" fill="#393939" fill-rule="nonzero"></path>
                </g>
            </g>
        </g>
    </g>
</svg>