<?xml version="1.0" encoding="UTF-8"?>
<svg width="80px" height="80px" viewBox="0 0 80 80" version="1.1" xmlns="http://www.w3.org/2000/svg" xmlns:xlink="http://www.w3.org/1999/xlink">
    <title>bx:building-house</title>
    <g id="ui-design" stroke="none" stroke-width="1" fill="none" fill-rule="evenodd">
        <g id="wireframe-home" transform="translate(-16.000000, -98.000000)">
            <g id="bx:building-house" transform="translate(16.000000, 98.000000)">
                <rect id="ViewBox" x="0" y="0" width="80" height="80"></rect>
                <path d="M63.3333333,6.66666667 L30,6.66666667 C26.3233333,6.66666667 23.3333333,9.65666667 23.3333333,13.3333333 L23.3333333,31.9533333 L7.64333333,47.6433333 C6.69030695,48.5966475 6.40526031,50.0301221 6.92107341,51.2755152 C7.4368865,52.5209083 8.65201367,53.3330455 10,53.3333333 L10,70 C10,71.8409492 11.4923842,73.3333333 13.3333333,73.3333333 L66.6666667,73.3333333 C68.5076158,73.3333333 70,71.8409492 70,70 L70,13.3333333 C70,9.65666667 67.01,6.66666667 63.3333333,6.66666667 Z M36.6666667,66.6666667 L16.6666667,66.6666667 L16.6666667,48.0466667 L26.6666667,38.0466667 L36.6666667,48.0466667 L36.6666667,66.6666667 Z M63.3333333,66.6666667 L43.3333333,66.6666667 L43.3333333,53.3333333 C44.6829052,53.3363145 45.9008267,52.5244421 46.4172478,51.2775811 C46.9336689,50.03072 46.646459,48.595457 45.69,47.6433333 L30,31.9533333 L30,13.3333333 L63.3333333,13.3333333 L63.3333333,66.6666667 Z" id="Shape" fill="#74689E" fill-rule="nonzero"></path>
                <path d="M36.6666667,20 L43.3333333,20 L43.3333333,26.6666667 L36.6666667,26.6666667 L36.6666667,20 Z M50,20 L56.6666667,20 L56.6666667,26.6666667 L50,26.6666667 L50,20 Z M50,33.4366667 L56.6666667,33.4366667 L56.6666667,40 L50,40 L50,33.4366667 Z M50,46.6666667 L56.6666667,46.6666667 L56.6666667,53.3333333 L50,53.3333333 L50,46.6666667 Z M23.3333333,50 L30,50 L30,56.6666667 L23.3333333,56.6666667 L23.3333333,50 Z" id="Shape" fill="#D62251" fill-rule="nonzero"></path>
            </g>
        </g>
    </g>
</svg>