<?xml version="1.0" encoding="UTF-8"?>
<svg width="80px" height="80px" viewBox="0 0 80 80" version="1.1" xmlns="http://www.w3.org/2000/svg" xmlns:xlink="http://www.w3.org/1999/xlink">
    <title>clarity:language-line</title>
    <g id="ui-design" stroke="none" stroke-width="1" fill="none" fill-rule="evenodd">
        <g id="wireframe-home" transform="translate(-16.000000, -98.000000)">
            <g id="clarity:language-line" transform="translate(16.000000, 98.000000)">
                <rect id="ViewBox" x="0" y="0" width="80" height="80"></rect>
                <path d="M66.6666667,6.66666667 L31.1111111,6.66666667 L31.1111111,17.7777778 L35.5555556,17.7777778 L35.5555556,11.1111111 L66.6666667,11.1111111 C68,11.1111111 68.8888889,12 68.8888889,13.3333333 L68.8888889,37.7777778 C68.8888889,39.1111111 68,40 66.6666667,40 L37.7777778,40 L37.7777778,55.5555556 L26,55.5555556 L17.7777778,62 L17.7777778,55.5555556 L11.1111111,55.5555556 C9.77777778,55.5555556 8.88888889,54.6666667 8.88888889,53.3333333 L8.88888889,28.8888889 C8.88888889,27.5555556 9.77777778,26.6666667 11.1111111,26.6666667 L40,26.6666667 L40,22.2222222 L11.1111111,22.2222222 C7.33333333,22.2222222 4.44444444,25.1111111 4.44444444,28.8888889 L4.44444444,53.3333333 C4.44444444,57.1111111 7.33333333,60 11.1111111,60 L13.3333333,60 L13.3333333,71.3333333 L27.3333333,60 L42.2222222,60 L42.2222222,44.4444444 L66.6666667,44.4444444 C70.4444444,44.4444444 73.3333333,41.5555556 73.3333333,37.7777778 L73.3333333,13.3333333 C73.3333333,9.55555556 70.4444444,6.66666667 66.6666667,6.66666667 Z" id="Path" fill="#74689E" fill-rule="nonzero"></path>
                <path d="M13.7777778,50.8888889 L19.1111111,50.8888889 L20.4444444,47.3333333 L27.3333333,47.3333333 L28.6666667,50.8888889 L34,50.8888889 L26.4444444,31.1111111 L21.1111111,31.1111111 L13.7777778,50.8888889 Z M23.7777778,36.6666667 L26,43.5555556 L21.5555556,43.5555556 L23.7777778,36.6666667 Z" id="Shape" fill="#D62251" fill-rule="nonzero"></path>
                <path d="M44.4444444,37.7777778 C46.8888889,37.7777778 50.2222222,37.1111111 53.3333333,35.5555556 C56.4444444,37.1111111 60,37.7777778 62.2222222,37.7777778 L62.2222222,33.3333333 C62.2222222,33.3333333 60,33.3333333 57.5555556,32.4444444 C60.2222222,29.7777778 62.2222222,25.7777778 62.2222222,20 L62.2222222,17.7777778 L55.5555556,17.7777778 L55.5555556,13.3333333 L51.1111111,13.3333333 L51.1111111,17.7777778 L44.4444444,17.7777778 L44.4444444,22.2222222 L57.5555556,22.2222222 C57.1111111,26.2222222 55.3333333,28.6666667 53.3333333,30.2222222 C52,29.1111111 50.6666667,27.5555556 49.7777778,25.5555556 L45.1111111,25.5555556 C46,28.4444444 47.3333333,30.6666667 49.1111111,32.4444444 C46.8888889,33.3333333 44.8888889,33.3333333 44.4444444,33.3333333 L44.4444444,37.7777778 L44.4444444,37.7777778 Z" id="Path" fill="#D62251" fill-rule="nonzero"></path>
            </g>
        </g>
    </g>
</svg>