<?xml version="1.0" encoding="UTF-8"?>
<svg width="40px" height="40px" viewBox="0 0 40 40" version="1.1" xmlns="http://www.w3.org/2000/svg" xmlns:xlink="http://www.w3.org/1999/xlink">
    <title>Group 8</title>
    <g id="ui-design" stroke="none" stroke-width="1" fill="none" fill-rule="evenodd">
        <g id="Sign-up" transform="translate(-212.000000, -716.000000)">
            <g id="Group-10" transform="translate(36.000000, 716.000000)">
                <g id="Group-8" transform="translate(176.000000, 0.000000)">
                    <rect id="Rectangle" stroke="#DDD8EE" x="0.5" y="0.5" width="39" height="39" rx="8"></rect>
                    <g id="linkedin-new-2020-seeklogo.com" transform="translate(7.000000, 7.000000)" fill="#0A66C2" fill-rule="nonzero">
                        <path d="M22.1532311,22.1538085 L18.3008443,22.1538085 L18.3008443,16.1206782 C18.3008443,14.682021 18.2751616,12.8300257 16.2972018,12.8300257 C14.2907503,12.8300257 13.9837632,14.3974999 13.9837632,16.0159391 L13.9837632,22.1534072 L10.1313763,22.1534072 L10.1313763,9.74684497 L13.8296677,9.74684497 L13.8296677,11.4423335 L13.8814341,11.4423335 C14.6355367,10.1529408 16.0376975,9.38283807 17.5303669,9.43824598 C21.4349215,9.43824598 22.1548363,12.00656 22.1548363,15.3477762 L22.1532311,22.1538085 Z M5.78459971,8.05095514 C4.54991844,8.05117668 3.54883184,7.05042752 3.54861015,5.81571924 C3.54838859,4.58101097 4.54911588,3.57990248 5.78379715,3.57968077 C7.01847844,3.5794592 8.01956505,4.58020835 8.01978677,5.81491662 C8.01989314,6.40784446 7.78446069,6.9765298 7.36528182,7.39586836 C6.94610294,7.81520692 6.37751459,8.05084865 5.78459971,8.05095514 M7.71079317,22.1538085 L3.85439336,22.1538085 L3.85439336,9.74684497 L7.71079317,9.74684497 L7.71079317,22.1538085 Z M24.0738066,0.00209950711 L1.91856894,0.00209950711 C0.871466648,-0.00971730055 0.0127793085,0.829052318 0,1.87616619 L0,24.1237857 C0.0123417787,25.1714041 0.870960016,26.0110041 1.91856894,26.0001608 L24.0738066,26.0001608 C25.123488,26.0130236 25.9854686,25.173472 26,24.1237857 L26,1.874561 C25.9850321,0.825378547 25.1229816,-0.0133431296 24.0738066,0.000160802916" id="Shape"></path>
                    </g>
                </g>
            </g>
        </g>
    </g>
</svg>