<?xml version="1.0" encoding="UTF-8"?>
<svg width="40px" height="40px" viewBox="0 0 40 40" version="1.1" xmlns="http://www.w3.org/2000/svg" xmlns:xlink="http://www.w3.org/1999/xlink">
    <title>Group 9</title>
    <g id="ui-design" stroke="none" stroke-width="1" fill="none" fill-rule="evenodd">
        <g id="Sign-up" transform="translate(-300.000000, -716.000000)">
            <g id="Group-10" transform="translate(36.000000, 716.000000)">
                <g id="Group-9" transform="translate(264.000000, 0.000000)">
                    <rect id="Rectangle" stroke="#DDD8EE" x="0.5" y="0.5" width="39" height="39" rx="8"></rect>
                    <g id="twitter-seeklogo.com" transform="translate(7.000000, 9.000000)" fill="#55ACEE" fill-rule="nonzero">
                        <path d="M26,2.50128388 C25.0433667,2.92553495 24.0153114,3.21226819 22.9362815,3.34122682 C24.0376605,2.6810271 24.8834046,1.63566334 25.2816928,0.390109368 C24.2510699,1.00133143 23.1094627,1.44526866 21.8944365,1.68454589 C20.9213504,0.647836424 19.5350452,-2.81892565e-16 18.0008559,-2.81892565e-16 C15.0548739,-2.81892565e-16 12.6664765,2.38830242 12.6664765,5.33409415 C12.6664765,5.75216357 12.7137422,6.15929624 12.80466,6.54969092 C8.37137422,6.32724679 4.44089397,4.20361388 1.80998573,0.976414644 C1.35083214,1.76424156 1.08777937,2.6805516 1.08777937,3.65810747 C1.08777937,5.50870186 2.0295768,7.14141702 3.46086543,8.0979553 C2.58640039,8.07028055 1.76395625,7.83033761 1.04469805,7.43081312 C1.04431765,7.45306705 1.04431765,7.47541607 1.04431765,7.4978602 C1.04431765,10.0823585 2.88302425,12.2383262 5.32325249,12.7282929 C4.87560628,12.850214 4.4043747,12.915359 3.91783167,12.915359 C3.57413219,12.915359 3.23994294,12.8819781 2.91431288,12.8196861 C3.59305754,14.9389444 5.56300523,16.4811222 7.89719448,16.5242035 C6.07161199,17.9548264 3.77156443,18.8076082 1.2724679,18.8076082 C0.841940085,18.8076082 0.417308606,18.7824061 0,18.7331431 C2.36062768,20.2466001 5.16452687,21.1296243 8.17689016,21.1296243 C17.9883975,21.1296243 23.3536852,13.0015216 23.3536852,5.95263908 C23.3536852,5.72135046 23.3485497,5.49129815 23.3382786,5.26257727 C24.3804089,4.51050879 25.2848312,3.57099382 26,2.50128388" id="Path"></path>
                    </g>
                </g>
            </g>
        </g>
    </g>
</svg>